<?xml version="1.0" encoding="utf-8"?>
<!-- Generator: Adobe Illustrator 24.1.0, SVG Export Plug-In . SVG Version: 6.00 Build 0)  -->
<svg version="1.1" id="Layer_1" xmlns="http://www.w3.org/2000/svg" xmlns:xlink="http://www.w3.org/1999/xlink" x="0px" y="0px"
	 viewBox="0 0 900 155" style="enable-background:new 0 0 900 155;" xml:space="preserve">
<style type="text/css">
	.st0{fill:#FFFFFF;}
</style>
<g id="Layer_2_1_">
	<g id="Layer_1-2">
		<path class="st0" d="M867.5,17.7000008v27.5c-16-7.7999992-31.5999756-11.6000023-46.7999878-11.6000023
			c-14.7000122,0-26,3.7000008-34,11.2000008s-11.9000244,16.8999977-11.9000244,28.5000038
			c0,11.0999985,4,20,11.9000244,26.9000015c8,6.9000015,18.4000244,10.3000031,31.4000244,10.3000031
			c7.0999756-0.0999985,14.2000122-1.5999985,20.7000122-4.5V91.1999969h-18.0999756V68.0999985h49.4000244v51.5
			c-5,5-12.5,9.0999985-22.7000122,12.2000046C837.7000732,134.9000092,827.500061,136.5,817.3001099,136.5
			c-21.7999878,0-39.7999878-6.1000061-53.7999878-18.1999969s-21-27.5-21-46.1999969c0-19.0999985,7-34.7000008,21-46.7000008
			s32.2000122-18.1000004,54.5-18.1000004C836.5,7.4000001,852.9000244,10.8000002,867.5,17.7000008z"/>
		<path class="st0" d="M731.5,7.4000001v129.1999969h-27l-71-82.8000031v82.8000031h-32V7.4000001h29.4000244l68.5999756,79v-79
			C699.5,7.4000015,731.5,7.4000015,731.5,7.4000001z"/>
		<path class="st0" d="M590.4000244,7.4000001v129.1999969h-32V7.4000001H590.4000244z"/>
		<path class="st0" d="M547.4000244,112.9000015v23.7000046h-98V7.4000001h32v105.5H547.4000244z"/>
		<path class="st0" d="M381.2000122,7.4000001l57.1000061,129.1999969h-34.3999939L393.2999878,111h-57.6000061l-9.6000061,25.5
			h-33.8999939L344.1000061,7.4000001H381.2000122z M383.8999939,88.5l-20.7999878-50.2000008L344.2000122,88.5H383.8999939z"/>
		<path class="st0" d="M184.1999969,7.4000001h55.5999908C253.0999908,7.4000001,263.5,10.6000004,271,17
			c7.6000061,6.3999996,11.3999939,14,11.3999939,22.7000008C282.3999939,50.9000015,276.5,59.5,264.7999878,65.5
			c8.7999878,2.3000031,15.6000061,6.5,20.2999878,12.4000015c4.7000122,5.9000015,7.2000122,13.1999969,7,20.7000046
			c0,11.1999969-3.7999878,20.4000015-11.5,27.4000015C272.8999634,133,261.5999756,136.5,246.6999817,136.5h-62.6000061V7.4000001
			H184.1999969z M216.1999969,31.1000004v27.6000004H233c5.1999969,0,9.1999969-1.2999992,12.1000061-4
			c2.8000031-2.5,4.3999939-6.2000008,4.3000031-10c0.1000061-3.7000008-1.5-7.2999992-4.3000031-9.7999992
			C242.2000122,32.3000031,238.2000122,31.0000019,233,31.0000019L216.1999969,31.1000004z M216.1999969,82.4000015v30.5h18
			c8.5,0,14.6999969-1.1999969,18.3999939-3.5999985s5.5999908-6.5,5.5999908-12.3000031
			c0.1000061-4.1999969-1.8999939-8.1999969-5.3000031-10.6999969c-3.6000061-2.5999985-8.3000031-3.9000015-14.3000031-3.9000015
			H216.1999969z"/>
		<path class="st0" d="M105.1999969,147.6000061V19.3999996L29.8999996,0v147.6000061H105.1999969z M101.5999985,28v116h-62.5V12
			L101.5999985,28z"/>
		<path class="st0" d="M101.5999985,18.5v129.1999969h71.5999985V0L101.5999985,18.5z M158.5,83
			c-4.1000061,0-7.3999939-3.3000031-7.3999939-7.3000031s3.3000031-7.4000015,7.3000031-7.4000015
			c4.1000061,0,7.3999939,3.3000031,7.3999939,7.3000031l0,0C165.8999939,79.6999969,162.6000061,83,158.5,83L158.5,83z"/>
		<rect y="143.8999939" class="st0" width="900" height="11.1000061"/>
	</g>
</g>
</svg>
