<svg xmlns="http://www.w3.org/2000/svg" viewBox="0 0 1587.32299 1400"><defs><style>.cls-1{fill:#be282d;}</style></defs><g id="Layer_2" data-name="Layer 2"><g id="Layer_1-2" data-name="Layer 1"><path class="cls-1" d="M1582.54774,1182.97314v50.22245q-43.96522-21.24162-85.95449-21.24163-40.50729,0-62.40758,20.41831-21.90159,20.41963-21.90028,52.03376,0,30.29944,21.90028,49.0698,21.89765,18.77167,57.63233,18.77167a95.45094,95.45094,0,0,0,38.03733-8.23319v-26.84019h-33.26208v-42.15393H1587.323v94.023q-13.66972,13.66972-41.57761,22.31194A185.9849,185.9849,0,0,1,1490.50069,1400q-60.10493,0-98.71594-33.17975-38.61629-33.17844-38.61366-84.39019,0-52.36308,38.61366-85.37817,38.61234-33.01245,100.03325-33.01509Q1542.53312,1164.0368,1582.54774,1182.97314Z"/><path class="cls-1" d="M1332.94568,1164.0368V1400h-49.64315l-130.2429-151.17184V1400H1094.28V1164.0368h53.8996L1274.166,1308.28345V1164.0368Z"/><path class="cls-1" d="M1074.05455,1164.0368V1400h-58.77967V1164.0368Z"/><path class="cls-1" d="M995.04947,1356.75979V1400H815.16342V1164.0368h58.77967v192.723Z"/><path class="cls-1" d="M690.13386,1164.0368,794.938,1400H731.7323l-19.44256-46.61836h-105.67L589.00074,1400H526.71355l95.3136-235.9632Zm4.96925,148.13152-38.24665-91.71655-34.66041,91.71655Z"/><path class="cls-1" d="M328.58554,1164.0368H430.60542q36.48393,0,57.344,17.55316,20.85867,17.55334,20.86,41.51669,0,30.72-32.26125,47.08826,24.32262,6.42522,37.244,22.64942,12.92139,16.22675,12.92139,37.85884,0,30.7595-21.11338,50.02791Q484.48409,1400.00271,443.44236,1400H328.58554Zm58.77967,43.24022v50.50321H418.1063q14.1882,0,22.12683-7.263a23.67786,23.67786,0,0,0,7.93863-18.242,22.9858,22.9858,0,0,0-7.93863-17.90416q-7.94135-7.09408-22.12683-7.09409Zm0,93.74343v55.73934H420.471q23.47537,0,33.78142-6.50293,10.30062-6.50022,10.30333-22.54909a22.92339,22.92339,0,0,0-9.79661-19.50877q-9.798-7.1772-26.1806-7.17855Z"/><path class="cls-1" d="M287.32226,1186.62882c-14.02087-14.99093-33.80545-22.592-58.80485-22.592a96.90583,96.90583,0,0,0-35.21781,6.84706c-10.41877,4.05594-18.93934,9.43334-25.38378,16.01284-15.11575-15.17336-36.95406-22.8599-64.98173-22.8599-21.4981,0-39.54995,7.27208-53.72765,21.62644l-9.10433-17.421H.00008V1400h57.1931V1235.70813c3.13164-5.12841,8.11411-9.95086,14.82323-14.34508,6.91874-4.52865,13.30013-6.82466,18.96686-6.82466,11.06974,0,19.7004,2.97259,25.652,8.83486,6.02134,5.934,8.94848,13.80261,8.94848,24.05527V1400H182.7765V1234.93586c2.61573-5.1937,7.09093-9.90029,13.31293-13.9988a36.17126,36.17126,0,0,1,20.072-6.39867c23.555,0,35.00563,13.441,35.00563,41.09065V1400h57.1931V1248.05933C308.36014,1222.22845,301.282,1201.56055,287.32226,1186.62882Z"/><path class="cls-1" d="M820.11684,1058.21528V139.055L277.78151,0V1058.21528Zm-26.45538-26.45539H304.23689V34.09457L787.09056,157.90249l6.5709,1.68495Z"/><path class="cls-1" d="M793.66153,132.27626v925.939h515.88V0ZM1203.72,595.24609a52.91077,52.91077,0,1,1,52.91076-52.91076A52.91079,52.91079,0,0,1,1203.72,595.24609Z"/><rect class="cls-1" y="1031.75989" width="1587.32291" height="52.91076"/></g></g></svg>